Serifas_Text-REGULAR_Plana.ufo
<glyph name="ampersand" format="2">
  <advance width="742"/>
  <unicode hex="0026"/>
  <outline>
    <contour>
      <point x="727" y="322" type="line"/>
      <point x="727" y="390" type="line"/>
      <point x="531" y="398" type="line"/>
      <point x="531" y="298" type="line"/>
      <point x="531" y="114"/>
      <point x="488" y="67"/>
      <point x="323" y="67" type="curve" smooth="yes"/>
      <point x="162" y="67"/>
      <point x="110" y="105"/>
      <point x="110" y="224" type="curve" smooth="yes"/>
      <point x="110.0" y="329.0"/>
      <point x="140" y="396.0"/>
      <point x="276" y="396" type="curve"/>
      <point x="261" y="437" type="line"/>
      <point x="89" y="437"/>
      <point x="24" y="376"/>
      <point x="24" y="214" type="curve" smooth="yes"/>
      <point x="24" y="49"/>
      <point x="112" y="-21"/>
      <point x="320" y="-21" type="curve" smooth="yes"/>
      <point x="532" y="-21"/>
      <point x="614" y="58"/>
      <point x="614" y="264" type="curve"/>
      <point x="616" y="367" type="line"/>
      <point x="568" y="308" type="line"/>
    </contour>
    <contour>
      <point x="422" y="693" type="line"/>
      <point x="433" y="526" type="line"/>
      <point x="503" y="526" type="line"/>
      <point x="516" y="727" type="line"/>
      <point x="450" y="751"/>
      <point x="396.63157894736844" y="757.0"/>
      <point x="327" y="757" type="curve" smooth="yes"/>
      <point x="170.0" y="757.0"/>
      <point x="135.0" y="698.0"/>
      <point x="135" y="600" type="curve" smooth="yes"/>
      <point x="135.0" y="506.47474747474746"/>
      <point x="182.45278514773486" y="458.2964514761614"/>
      <point x="228" y="403" type="curve" smooth="yes"/>
      <point x="527" y="40" type="line"/>
      <point x="627" y="-46" type="line"/>
      <point x="668" y="-11" type="line"/>
      <point x="578" y="110" type="line"/>
      <point x="299" y="453" type="line" smooth="yes"/>
      <point x="253.53103500871154" y="508.8991218351682"/>
      <point x="218.0" y="549.9127516778524"/>
      <point x="218" y="605" type="curve" smooth="yes"/>
      <point x="218.0" y="667"/>
      <point x="250.1818181818182" y="676.0"/>
      <point x="336" y="676" type="curve" smooth="yes"/>
      <point x="363.5229357798165" y="676.0"/>
      <point x="416" y="670"/>
      <point x="456" y="661" type="curve"/>
    </contour>
  </outline>
</glyph>
<glyph name="comma" format="2">
  <advance width="226"/>
  <unicode hex="002C"/>
  <outline>
    <contour>
      <point x="178" y="50" type="curve" smooth="yes"/>
      <point x="178" y="98"/>
      <point x="162" y="113"/>
      <point x="113" y="113" type="curve" smooth="yes"/>
      <point x="64" y="113"/>
      <point x="48" y="97"/>
      <point x="48" y="49" type="curve" smooth="yes"/>
      <point x="48" y="11"/>
      <point x="65" y="-6"/>
      <point x="93" y="-6" type="curve" smooth="yes"/>
      <point x="114" y="-6"/>
      <point x="124" y="-3"/>
      <point x="135" y="3" type="curve"/>
      <point x="139" y="28" type="line"/>
      <point x="59" y="-128" type="line"/>
      <point x="82" y="-143" type="line"/>
      <point x="103" y="-123"/>
      <point x="121" y="-108"/>
      <point x="140" y="-80" type="curve" smooth="yes"/>
      <point x="170" y="-36"/>
      <point x="178" y="1"/>
    </contour>
  </outline>
</glyph>
<glyph name="zero" format="2">
  <advance width="718"/>
  <unicode hex="0030"/>
  <outline>
    <contour>
      <point x="359" y="-18" type="curve" smooth="yes"/>
      <point x="151" y="-18"/>
      <point x="65" y="96"/>
      <point x="65" y="370" type="curve" smooth="yes"/>
      <point x="65" y="645"/>
      <point x="151" y="758"/>
      <point x="359" y="758" type="curve" smooth="yes"/>
      <point x="567" y="758"/>
      <point x="653" y="645"/>
      <point x="653" y="370" type="curve" smooth="yes"/>
      <point x="653" y="96"/>
      <point x="567" y="-18"/>
    </contour>
    <contour>
      <point x="359" y="75" type="curve" smooth="yes"/>
      <point x="499" y="75"/>
      <point x="573" y="156"/>
      <point x="573" y="370" type="curve" smooth="yes"/>
      <point x="573" y="585"/>
      <point x="499" y="665"/>
      <point x="359" y="665" type="curve" smooth="yes"/>
      <point x="219" y="665"/>
      <point x="145" y="585"/>
      <point x="145" y="370" type="curve" smooth="yes"/>
      <point x="145" y="156"/>
      <point x="219" y="75"/>
    </contour>
  </outline>
</glyph>
<glyph name="three" format="2">
  <advance width="644"/>
  <unicode hex="0033"/>
  <outline>
    <contour>
      <point x="114" y="111" type="line"/>
      <point x="178" y="86"/>
      <point x="204" y="75"/>
      <point x="292" y="75" type="curve" smooth="yes"/>
      <point x="435" y="75"/>
      <point x="519" y="100"/>
      <point x="519" y="197" type="curve" smooth="yes"/>
      <point x="519" y="301"/>
      <point x="460" y="327"/>
      <point x="299" y="336" type="curve" smooth="yes"/>
      <point x="209" y="341" type="line"/>
      <point x="209" y="421" type="line"/>
      <point x="299" y="428" type="line" smooth="yes"/>
      <point x="431" y="438"/>
      <point x="469" y="459"/>
      <point x="469" y="573" type="curve" smooth="yes"/>
      <point x="469" y="640"/>
      <point x="433" y="665"/>
      <point x="307" y="665" type="curve" smooth="yes"/>
      <point x="248" y="665"/>
      <point x="183" y="656"/>
      <point x="136" y="644" type="curve"/>
      <point x="181" y="683" type="line"/>
      <point x="168" y="508" type="line"/>
      <point x="101" y="508" type="line"/>
      <point x="91" y="732" type="line"/>
      <point x="144" y="742"/>
      <point x="220" y="758"/>
      <point x="318" y="758" type="curve" smooth="yes"/>
      <point x="488" y="758"/>
      <point x="549" y="726"/>
      <point x="549" y="576" type="curve" smooth="yes"/>
      <point x="549" y="470"/>
      <point x="523" y="396"/>
      <point x="413" y="391" type="curve" smooth="yes"/>
      <point x="346" y="388" type="line"/>
      <point x="413" y="426" type="line"/>
      <point x="413" y="363" type="line"/>
      <point x="346" y="384" type="line"/>
      <point x="413" y="381" type="line" smooth="yes"/>
      <point x="521" y="376"/>
      <point x="599" y="341"/>
      <point x="599" y="195" type="curve" smooth="yes"/>
      <point x="599" y="26"/>
      <point x="535" y="-18"/>
      <point x="294" y="-18" type="curve" smooth="yes"/>
      <point x="201" y="-18"/>
      <point x="162" y="-4"/>
      <point x="89" y="16" type="curve"/>
      <point x="103" y="241" type="line"/>
      <point x="170" y="241" type="line"/>
      <point x="183" y="67" type="line"/>
    </contour>
  </outline>
</glyph>
<glyph name="semicolon" format="2">
  <advance width="226"/>
  <unicode hex="003B"/>
  <outline>
    <contour>
      <point x="113" y="385" type="curve" smooth="yes"/>
      <point x="163" y="385"/>
      <point x="176" y="398"/>
      <point x="176" y="447" type="curve" smooth="yes"/>
      <point x="176" y="496"/>
      <point x="163" y="509"/>
      <point x="113" y="509" type="curve" smooth="yes"/>
      <point x="63" y="509"/>
      <point x="50" y="496"/>
      <point x="50" y="447" type="curve" smooth="yes"/>
      <point x="50" y="398"/>
      <point x="63" y="385"/>
    </contour>
    <contour>
      <point x="186" y="56" type="curve" smooth="yes"/>
      <point x="186" y="104"/>
      <point x="170" y="119"/>
      <point x="121" y="119" type="curve" smooth="yes"/>
      <point x="72" y="119"/>
      <point x="56" y="103"/>
      <point x="56" y="55" type="curve" smooth="yes"/>
      <point x="56" y="17"/>
      <point x="73" y="0"/>
      <point x="101" y="0" type="curve" smooth="yes"/>
      <point x="122" y="0"/>
      <point x="132" y="3"/>
      <point x="143" y="9" type="curve"/>
      <point x="147" y="34" type="line"/>
      <point x="67" y="-122" type="line"/>
      <point x="90" y="-137" type="line"/>
      <point x="111" y="-117"/>
      <point x="129" y="-102"/>
      <point x="148" y="-74" type="curve" smooth="yes"/>
      <point x="178" y="-30"/>
      <point x="186" y="7"/>
    </contour>
  </outline>
</glyph>
<glyph name="A" format="2">
  <advance width="792"/>
  <unicode hex="0041"/>
  <guideline x="0" y="676" angle="0" identifier="q6TP8oKuIn"/>
  <guideline x="0" y="656" angle="0" identifier="wUBL7VvHlA"/>
  <outline>
    <contour>
      <point x="39" y="0" type="line"/>
      <point x="308" y="0" type="line"/>
      <point x="308" y="64" type="line"/>
      <point x="174" y="92" type="line"/>
      <point x="195" y="58" type="line"/>
      <point x="413" y="684" type="line"/>
      <point x="372" y="651" type="line"/>
      <point x="459" y="651" type="line"/>
      <point x="422" y="684" type="line"/>
      <point x="625" y="52" type="line"/>
      <point x="639" y="86" type="line"/>
      <point x="533" y="64" type="line"/>
      <point x="533" y="0" type="line"/>
      <point x="802" y="0" type="line"/>
      <point x="802" y="64" type="line"/>
      <point x="679" y="98" type="line"/>
      <point x="718" y="62" type="line"/>
      <point x="495" y="740" type="line"/>
      <point x="344" y="740" type="line"/>
      <point x="108" y="57" type="line"/>
      <point x="147" y="93" type="line"/>
      <point x="39" y="64" type="line"/>
    </contour>
    <contour>
      <point x="219" y="199" type="line"/>
      <point x="604" y="199" type="line"/>
      <point x="604" y="289" type="line"/>
      <point x="219" y="289" type="line"/>
    </contour>
    <contour>
      <point x="191" y="676" type="line"/>
      <point x="346" y="652" type="line"/>
      <point x="376" y="740" type="line"/>
      <point x="191" y="740" type="line"/>
    </contour>
  </outline>
</glyph>
<glyph name="E" format="2">
  <advance width="652"/>
  <unicode hex="0045"/>
  <outline>
    <contour>
      <point x="157" y="318" type="line"/>
      <point x="157" y="416" type="line"/>
      <point x="465" y="405" type="line"/>
      <point x="465" y="328" type="line"/>
    </contour>
    <contour>
      <point x="178" y="100" type="line"/>
      <point x="530" y="100" type="line"/>
      <point x="510" y="67" type="line"/>
      <point x="532" y="238" type="line"/>
      <point x="594" y="238" type="line"/>
      <point x="601" y="0" type="line"/>
      <point x="48" y="0" type="line"/>
      <point x="48" y="64" type="line"/>
      <point x="158" y="93" type="line"/>
      <point x="132" y="65" type="line"/>
      <point x="132" y="690" type="line"/>
      <point x="153" y="648" type="line"/>
      <point x="48" y="676" type="line"/>
      <point x="48" y="740" type="line"/>
      <point x="595" y="740" type="line"/>
      <point x="583" y="507" type="line"/>
      <point x="520" y="507" type="line"/>
      <point x="510" y="668" type="line"/>
      <point x="546" y="640" type="line"/>
      <point x="177" y="640" type="line"/>
      <point x="212" y="698" type="line"/>
      <point x="212" y="57" type="line"/>
    </contour>
  </outline>
</glyph>
<glyph name="G" format="2">
  <advance width="692"/>
  <unicode hex="0047"/>
  <outline>
    <contour>
      <point x="605" y="171" type="curve"/>
      <point x="569" y="113" type="line"/>
      <point x="569" y="339" type="line"/>
      <point x="589" y="275" type="line"/>
      <point x="364" y="287" type="line"/>
      <point x="364" y="365" type="line"/>
      <point x="650" y="371" type="line"/>
      <point x="650" y="77" type="line"/>
      <point x="588" y="30"/>
      <point x="512" y="-18"/>
      <point x="373" y="-18" type="curve" smooth="yes"/>
      <point x="151" y="-18"/>
      <point x="40" y="95"/>
      <point x="40" y="362" type="curve" smooth="yes"/>
      <point x="40" y="629"/>
      <point x="152" y="758"/>
      <point x="383" y="758" type="curve" smooth="yes"/>
      <point x="505" y="758"/>
      <point x="595" y="726"/>
      <point x="639" y="695" type="curve"/>
      <point x="632" y="507" type="line"/>
      <point x="556" y="507" type="line"/>
      <point x="543" y="702" type="line"/>
      <point x="598" y="599" type="line"/>
      <point x="560.7064852033263" y="628.4422485236897"/>
      <point x="483.0" y="657.0"/>
      <point x="390" y="657" type="curve" smooth="yes"/>
      <point x="205.0" y="657.0"/>
      <point x="126.0" y="570.7985865724381"/>
      <point x="126" y="370" type="curve" smooth="yes"/>
      <point x="126.0" y="175.61347517730496"/>
      <point x="207.0" y="83.0"/>
      <point x="377" y="83" type="curve" smooth="yes"/>
      <point x="483.9380530973451" y="83.0"/>
      <point x="547.99469293154" y="108.99422739921903"/>
    </contour>
  </outline>
</glyph>
<glyph name="I" format="2">
  <advance width="359"/>
  <unicode hex="0049"/>
  <outline>
    <contour>
      <point x="222" y="694" type="line"/>
      <point x="222" y="51" type="line"/>
      <point x="190" y="94" type="line"/>
      <point x="324" y="64" type="line"/>
      <point x="324" y="0" type="line"/>
      <point x="35" y="0" type="line"/>
      <point x="35" y="64" type="line"/>
      <point x="167" y="94" type="line"/>
      <point x="133" y="51" type="line"/>
      <point x="133" y="694" type="line"/>
      <point x="167" y="646" type="line"/>
      <point x="35" y="676" type="line"/>
      <point x="35" y="740" type="line"/>
      <point x="324" y="740" type="line"/>
      <point x="324" y="676" type="line"/>
      <point x="190" y="646" type="line"/>
    </contour>
  </outline>
</glyph>
<glyph name="J" format="2">
  <advance width="575"/>
  <unicode hex="004A"/>
  <guideline x="0" y="676" angle="0" identifier="TlNJEXenUn"/>
  <guideline x="0" y="656" angle="0" identifier="5zsWPTag4m"/>
  <outline>
    <contour>
      <point x="34" y="26" type="line"/>
      <point x="103" y="-4"/>
      <point x="165.62886597938143" y="-18.0"/>
      <point x="226" y="-18" type="curve" smooth="yes"/>
      <point x="385" y="-18"/>
      <point x="436" y="53"/>
      <point x="436" y="243" type="curve" smooth="yes"/>
      <point x="436" y="693" type="line"/>
      <point x="402" y="649" type="line"/>
      <point x="561" y="676" type="line"/>
      <point x="561" y="740" type="line"/>
      <point x="163" y="740" type="line"/>
      <point x="163" y="674" type="line"/>
      <point x="387" y="650" type="line"/>
      <point x="353" y="686" type="line"/>
      <point x="353" y="248" type="line" smooth="yes"/>
      <point x="353" y="118.0"/>
      <point x="310.0" y="73.0"/>
      <point x="218" y="73" type="curve" smooth="yes"/>
      <point x="165.0" y="73.0"/>
      <point x="121" y="80"/>
      <point x="58" y="100" type="curve"/>
    </contour>
  </outline>
</glyph>
<glyph name="N" format="2">
  <advance width="814"/>
  <unicode hex="004E"/>
  <guideline x="0" y="676" angle="0" identifier="tkwGYD80ST"/>
  <guideline x="0" y="656" angle="0" identifier="026o0V0Wbn"/>
  <guideline x="0" y="84" angle="0" identifier="RqCCHBO844"/>
  <outline>
    <contour>
      <point x="511" y="741" type="line"/>
      <point x="511" y="676" type="line"/>
      <point x="644" y="651" type="line"/>
      <point x="620" y="685" type="line"/>
      <point x="620" y="64" type="line"/>
      <point x="622" y="37" type="line"/>
      <point x="275" y="740" type="line"/>
      <point x="40" y="740" type="line"/>
      <point x="40" y="676" type="line"/>
      <point x="148" y="648" type="line"/>
      <point x="119" y="690" type="line"/>
      <point x="119" y="65" type="line"/>
      <point x="153" y="93" type="line"/>
      <point x="40" y="64" type="line"/>
      <point x="40" y="0" type="line"/>
      <point x="303" y="0" type="line"/>
      <point x="303" y="64" type="line"/>
      <point x="167" y="95" type="line"/>
      <point x="200" y="57" type="line"/>
      <point x="200" y="698" type="line"/>
      <point x="201" y="701" type="line"/>
      <point x="546" y="0" type="line"/>
      <point x="703" y="0" type="line"/>
      <point x="703" y="693" type="line"/>
      <point x="669" y="647" type="line"/>
      <point x="781" y="676" type="line"/>
      <point x="781" y="740" type="line"/>
    </contour>
    <contour>
      <point x="155" y="641" type="line"/>
      <point x="249" y="641" type="line"/>
      <point x="249" y="721" type="line"/>
      <point x="155" y="721" type="line"/>
    </contour>
    <contour>
      <point x="569" y="9" type="line"/>
      <point x="660" y="9" type="line"/>
      <point x="660" y="99" type="line"/>
      <point x="569" y="99" type="line"/>
    </contour>
  </outline>
</glyph>
<glyph name="O" format="2">
  <advance width="758"/>
  <unicode hex="004F"/>
  <outline>
    <contour>
      <point x="379" y="-18" type="curve" smooth="yes"/>
      <point x="151" y="-18"/>
      <point x="56" y="96"/>
      <point x="56" y="370" type="curve" smooth="yes"/>
      <point x="56" y="645"/>
      <point x="151" y="758"/>
      <point x="379" y="758" type="curve" smooth="yes"/>
      <point x="607" y="758"/>
      <point x="702" y="645"/>
      <point x="702" y="370" type="curve" smooth="yes"/>
      <point x="702" y="96"/>
      <point x="607" y="-18"/>
    </contour>
    <contour>
      <point x="379" y="82" type="curve" smooth="yes"/>
      <point x="540.0" y="82.0"/>
      <point x="617.0" y="145.09540636042402"/>
      <point x="617" y="370" type="curve" smooth="yes"/>
      <point x="617.0" y="595.1378091872791"/>
      <point x="540.0" y="657.0"/>
      <point x="379" y="657" type="curve" smooth="yes"/>
      <point x="218.0" y="657.0"/>
      <point x="141.0" y="595.1378091872791"/>
      <point x="141" y="370" type="curve" smooth="yes"/>
      <point x="141.0" y="145.09540636042402"/>
      <point x="218.0" y="82.0"/>
    </contour>
  </outline>
</glyph>
<glyph name="Q" format="2">
  <advance width="758"/>
  <unicode hex="0051"/>
  <outline>
    <contour>
      <point x="339" y="11" type="line"/>
      <point x="420" y="11" type="line"/>
      <point x="420" y="-139" type="line"/>
      <point x="391" y="-84" type="line"/>
      <point x="661" y="-98" type="line"/>
      <point x="661" y="-172" type="line"/>
      <point x="415" y="-193" type="line"/>
      <point x="339" y="-190" type="line"/>
    </contour>
    <component base="O" yOffset="-1"/>
  </outline>
</glyph>
<glyph name="S" format="2">
  <advance width="628"/>
  <unicode hex="0053"/>
  <outline>
    <contour>
      <point x="494" y="516" type="line"/>
      <point x="561" y="516" type="line"/>
      <point x="568" y="706" type="line"/>
      <point x="568" y="706"/>
      <point x="486" y="759"/>
      <point x="330" y="759" type="curve" smooth="yes"/>
      <point x="187" y="759"/>
      <point x="58" y="735"/>
      <point x="58" y="553" type="curve" smooth="yes"/>
      <point x="58" y="376"/>
      <point x="184" y="351"/>
      <point x="303" y="331" type="curve" smooth="yes"/>
      <point x="315" y="329" type="line" smooth="yes"/>
      <point x="415" y="312"/>
      <point x="508" y="313"/>
      <point x="508" y="205" type="curve" smooth="yes"/>
      <point x="508" y="96"/>
      <point x="436" y="79"/>
      <point x="324" y="79" type="curve" smooth="yes"/>
      <point x="232" y="79"/>
      <point x="173" y="97"/>
      <point x="138" y="114" type="curve"/>
      <point x="129" y="234" type="line"/>
      <point x="61" y="234" type="line"/>
      <point x="54" y="51" type="line"/>
      <point x="54" y="51"/>
      <point x="157" y="-18"/>
      <point x="317" y="-18" type="curve" smooth="yes"/>
      <point x="463" y="-18"/>
      <point x="592" y="30"/>
      <point x="592" y="207" type="curve" smooth="yes"/>
      <point x="592" y="386"/>
      <point x="457" y="386"/>
      <point x="336" y="410" type="curve" smooth="yes"/>
      <point x="326" y="412" type="line" smooth="yes"/>
      <point x="231" y="431"/>
      <point x="144" y="450"/>
      <point x="144" y="552" type="curve" smooth="yes"/>
      <point x="144" y="616"/>
      <point x="186" y="660"/>
      <point x="333" y="660" type="curve" smooth="yes"/>
      <point x="408" y="660"/>
      <point x="456" y="648"/>
      <point x="486" y="636" type="curve"/>
    </contour>
  </outline>
</glyph>
<glyph name="V" format="2">
  <advance width="739"/>
  <unicode hex="0056"/>
  <guideline x="256" y="648" angle="0" identifier="5glwK7CfE7"/>
  <outline>
    <contour>
      <point x="64" y="676" type="line"/>
      <point x="289" y="0" type="line"/>
      <point x="442" y="0" type="line"/>
      <point x="673" y="681" type="line"/>
      <point x="633" y="639" type="line"/>
      <point x="742" y="674" type="line"/>
      <point x="742" y="740" type="line"/>
      <point x="468" y="740" type="line"/>
      <point x="468" y="674" type="line"/>
      <point x="602" y="640" type="line"/>
      <point x="586" y="680" type="line"/>
      <point x="372" y="56" type="line"/>
      <point x="409" y="89" type="line"/>
      <point x="323" y="89" type="line"/>
      <point x="363" y="56" type="line"/>
      <point x="159" y="686" type="line"/>
      <point x="149" y="644" type="line"/>
      <point x="271" y="674" type="line"/>
      <point x="271" y="740" type="line"/>
      <point x="-20" y="740" type="line"/>
      <point x="-20" y="674" type="line"/>
      <point x="103" y="640" type="line"/>
    </contour>
  </outline>
</glyph>
<glyph name="W" format="2">
  <advance width="1069"/>
  <unicode hex="0057"/>
  <outline>
    <contour>
      <point x="555" y="675" type="line"/>
      <point x="538" y="675" type="line"/>
      <point x="687" y="0" type="line"/>
      <point x="845" y="0" type="line"/>
      <point x="996" y="683" type="line"/>
      <point x="957" y="647" type="line"/>
      <point x="1065" y="676" type="line"/>
      <point x="1065" y="740" type="line"/>
      <point x="791" y="740" type="line"/>
      <point x="791" y="676" type="line"/>
      <point x="925" y="648" type="line"/>
      <point x="917" y="682" type="line"/>
      <point x="779" y="56" type="line"/>
      <point x="808" y="89" type="line"/>
      <point x="728" y="89" type="line"/>
      <point x="758" y="36" type="line"/>
      <point x="614" y="691" type="line"/>
      <point x="478" y="691" type="line"/>
      <point x="324" y="56" type="line"/>
      <point x="364" y="89" type="line"/>
      <point x="280" y="89" type="line"/>
      <point x="297" y="56" type="line"/>
      <point x="180" y="688" type="line"/>
      <point x="173" y="654" type="line"/>
      <point x="279" y="676" type="line"/>
      <point x="279" y="740" type="line"/>
      <point x="5" y="740" type="line"/>
      <point x="5" y="676" type="line"/>
      <point x="128" y="642" type="line"/>
      <point x="89" y="678" type="line"/>
      <point x="226" y="0" type="line"/>
      <point x="391" y="0" type="line"/>
    </contour>
    <contour>
      <point x="506" y="590" type="line"/>
      <point x="597" y="590" type="line"/>
      <point x="597" y="669" type="line"/>
      <point x="506" y="669" type="line"/>
    </contour>
  </outline>
</glyph>
<glyph name="X" format="2">
  <advance width="740"/>
  <unicode hex="0058"/>
  <outline>
    <contour>
      <point x="63" y="46" type="line"/>
      <point x="122" y="97" type="line"/>
      <point x="-14" y="64" type="line"/>
      <point x="-14" y="0" type="line"/>
      <point x="319" y="0" type="line"/>
      <point x="319" y="64" type="line"/>
      <point x="170" y="90" type="line"/>
      <point x="160" y="45" type="line"/>
      <point x="364" y="354" type="line"/>
      <point x="404" y="328" type="line"/>
      <point x="670" y="705" type="line"/>
      <point x="583" y="639" type="line"/>
      <point x="725" y="672" type="line"/>
      <point x="725" y="736" type="line"/>
      <point x="398" y="736" type="line"/>
      <point x="398" y="672" type="line"/>
      <point x="565" y="649" type="line"/>
      <point x="567" y="696" type="line"/>
      <point x="355" y="393" type="line"/>
      <point x="313" y="421" type="line"/>
    </contour>
    <contour>
      <point x="648" y="45" type="line"/>
      <point x="402" y="409" type="line"/>
      <point x="353" y="407" type="line"/>
      <point x="128" y="723" type="line"/>
      <point x="152" y="636" type="line"/>
      <point x="323" y="672" type="line"/>
      <point x="323" y="736" type="line"/>
      <point x="-21" y="736" type="line"/>
      <point x="-21" y="672" type="line"/>
      <point x="124" y="634" type="line"/>
      <point x="56" y="699" type="line"/>
      <point x="310" y="341" type="line"/>
      <point x="363" y="339" type="line"/>
      <point x="572" y="27" type="line"/>
      <point x="561" y="97" type="line"/>
      <point x="421" y="64" type="line"/>
      <point x="421" y="0" type="line"/>
      <point x="746" y="0" type="line"/>
      <point x="746" y="64" type="line"/>
      <point x="582" y="97" type="line"/>
    </contour>
    <contour>
      <point x="283" y="322" type="line"/>
      <point x="433" y="322" type="line"/>
      <point x="412" y="429" type="line"/>
      <point x="305" y="429" type="line"/>
    </contour>
  </outline>
</glyph>
<glyph name="Z" format="2">
  <advance width="609"/>
  <unicode hex="005A"/>
  <outline>
    <contour>
      <point x="54" y="740" type="line"/>
      <point x="64" y="506" type="line"/>
      <point x="131" y="506" type="line"/>
      <point x="143" y="691" type="line"/>
      <point x="111" y="648" type="line"/>
      <point x="485" y="648" type="line"/>
      <point x="482" y="640" type="line"/>
      <point x="47" y="128" type="line"/>
      <point x="47" y="0" type="line"/>
      <point x="586" y="0" type="line"/>
      <point x="580" y="234" type="line"/>
      <point x="513" y="234" type="line"/>
      <point x="495" y="31" type="line"/>
      <point x="540" y="92" type="line"/>
      <point x="133" y="92" type="line"/>
      <point x="133" y="100" type="line"/>
      <point x="564" y="605" type="line"/>
      <point x="564" y="740" type="line"/>
    </contour>
    <contour>
      <point x="538.0" y="706.0" type="line"/>
      <point x="468.0" y="706.0" type="line"/>
      <point x="468.0" y="578.0" type="line"/>
    </contour>
    <contour>
      <point x="142.0" y="20.0" type="line"/>
      <point x="142.0" y="134.0" type="line"/>
      <point x="59.0" y="127.0" type="line"/>
      <point x="59.0" y="13.0" type="line"/>
    </contour>
  </outline>
</glyph>
<glyph name="bracketright" format="2">
  <advance width="500"/>
  <unicode hex="005D"/>
  <outline>
    <contour>
      <point x="401" y="765" type="line"/>
      <point x="137" y="755" type="line"/>
      <point x="137" y="684" type="line"/>
      <point x="350" y="676" type="line"/>
      <point x="320" y="711" type="line"/>
      <point x="320" y="-38" type="line"/>
      <point x="350" y="-2" type="line"/>
      <point x="137" y="-10" type="line"/>
      <point x="137" y="-82" type="line"/>
      <point x="401" y="-92" type="line"/>
    </contour>
  </outline>
</glyph>
<glyph name="a" format="2">
  <advance width="592"/>
  <unicode hex="0061"/>
  <outline>
    <contour>
      <point x="232" y="-15" type="curve" smooth="yes"/>
      <point x="109" y="-15"/>
      <point x="52" y="37"/>
      <point x="52" y="155" type="curve" smooth="yes"/>
      <point x="52" y="279"/>
      <point x="114" y="340"/>
      <point x="240" y="340" type="curve" smooth="yes"/>
      <point x="314" y="340"/>
      <point x="375" y="319"/>
      <point x="394" y="243" type="curve"/>
      <point x="353" y="271" type="line"/>
      <point x="430" y="271" type="line"/>
      <point x="430" y="196" type="line"/>
      <point x="389" y="236"/>
      <point x="347" y="246"/>
      <point x="252" y="246" type="curve" smooth="yes"/>
      <point x="169" y="246"/>
      <point x="133" y="221"/>
      <point x="133" y="158" type="curve" smooth="yes"/>
      <point x="133" y="97"/>
      <point x="168" y="79"/>
      <point x="252" y="79" type="curve" smooth="yes"/>
      <point x="338" y="79"/>
      <point x="394" y="104"/>
      <point x="425" y="142" type="curve"/>
      <point x="440" y="65" type="line"/>
      <point x="350" y="65" type="line"/>
      <point x="392" y="88" type="line"/>
      <point x="359" y="-6"/>
      <point x="305" y="-15"/>
    </contour>
    <contour>
      <point x="410" y="0" type="line"/>
      <point x="410" y="327" type="line" smooth="yes"/>
      <point x="410" y="441.19580419580416"/>
      <point x="366.0" y="469.0"/>
      <point x="262" y="469" type="curve" smooth="yes"/>
      <point x="194" y="469"/>
      <point x="150" y="464"/>
      <point x="96" y="451" type="curve"/>
      <point x="76" y="527" type="line"/>
      <point x="114" y="541"/>
      <point x="186" y="563"/>
      <point x="274" y="563" type="curve"/>
      <point x="445" y="563"/>
      <point x="490" y="508"/>
      <point x="490" y="324" type="curve" smooth="yes"/>
      <point x="490" y="45" type="line"/>
      <point x="460" y="80" type="line"/>
      <point x="554" y="64" type="line"/>
      <point x="554" y="0" type="line"/>
    </contour>
  </outline>
</glyph>
<glyph name="b" format="2">
  <advance width="613"/>
  <unicode hex="0062"/>
  <outline>
    <contour>
      <point x="83" y="0" type="line"/>
      <point x="137" y="0" type="line"/>
      <point x="162" y="89" type="line"/>
      <point x="163" y="93" type="line"/>
      <point x="163" y="760" type="line"/>
      <point x="11" y="760" type="line"/>
      <point x="11" y="700" type="line"/>
      <point x="112" y="665" type="line"/>
      <point x="83" y="705" type="line"/>
      <point x="83" y="156" type="line"/>
      <point x="83" y="137" type="line"/>
    </contour>
    <contour>
      <point x="319" y="-8" type="curve" smooth="yes"/>
      <point x="480" y="-8"/>
      <point x="546" y="69"/>
      <point x="546" y="280" type="curve" smooth="yes"/>
      <point x="546.0" y="462.0"/>
      <point x="499" y="560.0"/>
      <point x="347" y="560" type="curve" smooth="yes"/>
      <point x="245" y="560"/>
      <point x="206" y="534"/>
      <point x="170" y="443" type="curve"/>
      <point x="186" y="470" type="line"/>
      <point x="142" y="470" type="line"/>
      <point x="162" y="405" type="line"/>
      <point x="187" y="438"/>
      <point x="235" y="465"/>
      <point x="316" y="465" type="curve" smooth="yes"/>
      <point x="428.0" y="465.0"/>
      <point x="466.0" y="423"/>
      <point x="466" y="279" type="curve" smooth="yes"/>
      <point x="466.0" y="118"/>
      <point x="414.0" y="85.0"/>
      <point x="313" y="85" type="curve" smooth="yes"/>
      <point x="240.0" y="85.0"/>
      <point x="193.39424247770955" y="94.53031073313417"/>
      <point x="158" y="139" type="curve"/>
      <point x="144" y="68" type="line"/>
      <point x="202" y="68" type="line"/>
      <point x="164" y="101" type="line"/>
      <point x="198" y="21"/>
      <point x="250" y="-8.0"/>
    </contour>
  </outline>
</glyph>
<glyph name="f" format="2">
  <advance width="412"/>
  <unicode hex="0066"/>
  <outline>
    <contour>
      <point x="29" y="0" type="line"/>
      <point x="347" y="0" type="line"/>
      <point x="347" y="60" type="line"/>
      <point x="182" y="96" type="line"/>
      <point x="207" y="55" type="line"/>
      <point x="207" y="554" type="line" smooth="yes"/>
      <point x="207" y="650"/>
      <point x="226.0" y="667.0"/>
      <point x="298" y="667" type="curve" smooth="yes"/>
      <point x="338" y="667.0"/>
      <point x="402" y="659"/>
      <point x="429" y="654" type="curve"/>
      <point x="446" y="729" type="line"/>
      <point x="404" y="743"/>
      <point x="337" y="760"/>
      <point x="291" y="760" type="curve" smooth="yes"/>
      <point x="153.0" y="760.0"/>
      <point x="127" y="695"/>
      <point x="127" y="528" type="curve" smooth="yes"/>
      <point x="127" y="55" type="line"/>
      <point x="153" y="94" type="line"/>
      <point x="29" y="60" type="line"/>
    </contour>
    <contour>
      <point x="137" y="452" type="line"/>
      <point x="182" y="452" type="line"/>
      <point x="390" y="462" type="line"/>
      <point x="390" y="529" type="line"/>
      <point x="174" y="541" type="line"/>
      <point x="136" y="540" type="line"/>
      <point x="28" y="528" type="line"/>
      <point x="28" y="462" type="line"/>
    </contour>
  </outline>
</glyph>
<glyph name="j" format="2">
  <advance width="328"/>
  <unicode hex="006A"/>
  <outline>
    <contour>
      <point x="64.2714" y="-219.873" type="curve" smooth="yes"/>
      <point x="202.463" y="-219.873"/>
      <point x="240" y="-166.235"/>
      <point x="240" y="15" type="curve" smooth="yes"/>
      <point x="240" y="540" type="line"/>
      <point x="19" y="540" type="line"/>
      <point x="19" y="466" type="line"/>
      <point x="185" y="447" type="line"/>
      <point x="152" y="485" type="line"/>
      <point x="152" y="-11" type="line" smooth="yes"/>
      <point x="152" y="-105.592"/>
      <point x="130.882" y="-133.631"/>
      <point x="46.9008" y="-133.631" type="curve" smooth="yes"/>
      <point x="17.6527" y="-133.631"/>
      <point x="-16.0463" y="-126.649"/>
      <point x="-52" y="-115" type="curve"/>
      <point x="-77" y="-190" type="line"/>
      <point x="-25.0293" y="-209.367"/>
      <point x="22.6007" y="-219.873"/>
    </contour>
    <contour>
      <point x="165" y="640" type="curve" smooth="yes"/>
      <point x="211" y="640"/>
      <point x="233" y="658"/>
      <point x="233" y="709" type="curve" smooth="yes"/>
      <point x="233" y="763"/>
      <point x="211" y="777"/>
      <point x="169" y="777" type="curve"/>
      <point x="119" y="777"/>
      <point x="99" y="763"/>
      <point x="99" y="709" type="curve" smooth="yes"/>
      <point x="99" y="658"/>
      <point x="119" y="640"/>
    </contour>
  </outline>
</glyph>
<glyph name="k" format="2">
  <advance width="579"/>
  <unicode hex="006B"/>
  <guideline x="0" y="322" angle="0" identifier="ByaEgZyva8"/>
  <outline>
    <contour>
      <point x="41" y="0" type="line"/>
      <point x="269" y="0" type="line"/>
      <point x="269" y="60" type="line"/>
      <point x="175" y="95" type="line"/>
      <point x="195" y="56" type="line"/>
      <point x="195" y="760" type="line"/>
      <point x="41" y="760" type="line"/>
      <point x="41" y="700" type="line"/>
      <point x="144" y="663" type="line"/>
      <point x="115" y="705" type="line"/>
      <point x="115" y="56" type="line"/>
      <point x="143" y="95" type="line"/>
      <point x="41" y="60" type="line"/>
    </contour>
    <contour>
      <point x="462" y="-4" type="line"/>
      <point x="589" y="-4" type="line"/>
      <point x="589" y="64" type="line"/>
      <point x="443" y="101" type="line"/>
      <point x="433" y="50" type="line"/>
    </contour>
    <contour>
      <point x="445" y="-4" type="line"/>
      <point x="501" y="-4" type="line"/>
      <point x="501" y="65" type="line"/>
      <point x="370" y="289" type="line"/>
      <point x="353" y="232" type="line"/>
      <point x="507" y="471" type="line"/>
      <point x="433" y="498" type="line"/>
      <point x="282" y="262" type="line"/>
      <point x="349" y="314" type="line"/>
      <point x="156" y="314" type="line"/>
      <point x="156" y="227" type="line"/>
      <point x="360" y="227" type="line"/>
      <point x="296" y="251" type="line"/>
    </contour>
    <contour>
      <point x="414" y="454" type="line"/>
      <point x="449" y="443" type="line"/>
      <point x="585" y="480" type="line"/>
      <point x="585" y="540" type="line"/>
      <point x="314" y="540" type="line"/>
      <point x="314" y="480" type="line"/>
    </contour>
    <contour>
      <point x="332" y="247" type="line"/>
      <point x="385" y="215" type="line"/>
      <point x="385" y="322" type="line"/>
      <point x="332" y="292" type="line"/>
    </contour>
  </outline>
</glyph>
<glyph name="l" format="2">
  <advance width="300"/>
  <unicode hex="006C"/>
  <outline>
    <contour>
      <point x="37" y="0" type="line"/>
      <point x="265" y="0" type="line"/>
      <point x="265" y="60" type="line"/>
      <point x="171" y="95" type="line"/>
      <point x="191" y="56" type="line"/>
      <point x="191" y="760" type="line"/>
      <point x="37" y="760" type="line"/>
      <point x="37" y="700" type="line"/>
      <point x="140" y="663" type="line"/>
      <point x="111" y="705" type="line"/>
      <point x="111" y="56" type="line"/>
      <point x="139" y="95" type="line"/>
      <point x="37" y="60" type="line"/>
    </contour>
  </outline>
</glyph>
<glyph name="o" format="2">
  <advance width="566"/>
  <unicode hex="006F"/>
  <outline>
    <contour>
      <point x="283" y="-10" type="curve" smooth="yes"/>
      <point x="454" y="-10"/>
      <point x="523" y="72"/>
      <point x="523" y="273" type="curve" smooth="yes"/>
      <point x="523" y="477"/>
      <point x="454" y="560"/>
      <point x="283" y="560" type="curve" smooth="yes"/>
      <point x="112" y="560"/>
      <point x="43" y="477"/>
      <point x="43" y="273" type="curve" smooth="yes"/>
      <point x="43" y="72"/>
      <point x="112" y="-10"/>
    </contour>
    <contour>
      <point x="283" y="78" type="curve" smooth="yes"/>
      <point x="172.0" y="78.0"/>
      <point x="125.0" y="118.7908163265306"/>
      <point x="125" y="273" type="curve" smooth="yes"/>
      <point x="125.0" y="427.225"/>
      <point x="172.0" y="472.0"/>
      <point x="283" y="472" type="curve" smooth="yes"/>
      <point x="394.0" y="472.0"/>
      <point x="441.0" y="427.43229166666663"/>
      <point x="441" y="273" type="curve" smooth="yes"/>
      <point x="441.0" y="118.45212765957447"/>
      <point x="394.0" y="78.0"/>
    </contour>
  </outline>
</glyph>
<glyph name="p" format="2">
  <advance width="611"/>
  <unicode hex="0070"/>
  <outline>
    <contour>
      <point x="45" y="-210" type="line"/>
      <point x="325" y="-210" type="line"/>
      <point x="325" y="-160" type="line"/>
      <point x="155" y="-132" type="line"/>
      <point x="185" y="-167" type="line"/>
      <point x="185" y="540" type="line"/>
      <point x="45" y="540" type="line"/>
      <point x="45" y="480" type="line"/>
      <point x="133" y="443" type="line"/>
      <point x="105" y="485" type="line"/>
      <point x="105" y="-167" type="line"/>
      <point x="133" y="-126" type="line"/>
      <point x="45" y="-160" type="line"/>
    </contour>
    <contour>
      <point x="340" y="-8" type="curve" smooth="yes"/>
      <point x="501" y="-8"/>
      <point x="567" y="69"/>
      <point x="567" y="280" type="curve" smooth="yes"/>
      <point x="567" y="462"/>
      <point x="507" y="560"/>
      <point x="356" y="560" type="curve"/>
      <point x="261" y="560"/>
      <point x="227" y="533"/>
      <point x="191" y="443" type="curve"/>
      <point x="207" y="470" type="line"/>
      <point x="163" y="470" type="line"/>
      <point x="183" y="405" type="line"/>
      <point x="208" y="438"/>
      <point x="256" y="465"/>
      <point x="337" y="465" type="curve" smooth="yes"/>
      <point x="439" y="465"/>
      <point x="487" y="422"/>
      <point x="487" y="276" type="curve" smooth="yes"/>
      <point x="487" y="117"/>
      <point x="435" y="85"/>
      <point x="334" y="85" type="curve" smooth="yes"/>
      <point x="261" y="85"/>
      <point x="218" y="100"/>
      <point x="179" y="149" type="curve"/>
      <point x="165" y="75" type="line"/>
      <point x="223" y="75" type="line"/>
      <point x="177" y="101" type="line"/>
      <point x="218" y="25"/>
      <point x="267" y="-8"/>
    </contour>
  </outline>
</glyph>
<glyph name="q" format="2">
  <advance width="605"/>
  <unicode hex="0071"/>
  <outline>
    <contour>
      <point x="259" y="-8" type="curve" smooth="yes"/>
      <point x="360" y="-8"/>
      <point x="395" y="19"/>
      <point x="411" y="89" type="curve"/>
      <point x="391" y="83" type="line"/>
      <point x="468" y="83" type="line"/>
      <point x="440" y="169" type="line"/>
      <point x="410" y="100"/>
      <point x="351" y="85"/>
      <point x="274" y="85" type="curve" smooth="yes"/>
      <point x="176" y="85"/>
      <point x="124" y="125"/>
      <point x="124" y="270" type="curve" smooth="yes"/>
      <point x="124" y="433"/>
      <point x="177" y="465"/>
      <point x="282" y="465" type="curve" smooth="yes"/>
      <point x="362" y="465"/>
      <point x="406" y="436"/>
      <point x="439" y="372" type="curve"/>
      <point x="450" y="490" type="line"/>
      <point x="366" y="490" type="line"/>
      <point x="406" y="463" type="line"/>
      <point x="391.9538625334396" y="531.2240962661506"/>
      <point x="353.171875" y="560.0"/>
      <point x="268" y="560" type="curve" smooth="yes"/>
      <point x="113" y="560"/>
      <point x="44" y="477"/>
      <point x="44" y="272" type="curve" smooth="yes"/>
      <point x="44" y="54"/>
      <point x="124" y="-8"/>
    </contour>
    <contour>
      <point x="286" y="-210" type="line"/>
      <point x="587" y="-210" type="line"/>
      <point x="587" y="-160" type="line"/>
      <point x="487" y="-112" type="line"/>
      <point x="515" y="-162" type="line"/>
      <point x="515" y="543" type="line"/>
      <point x="451" y="543" type="line"/>
      <point x="426" y="449" type="line"/>
      <point x="426" y="-155" type="line"/>
      <point x="465" y="-113" type="line"/>
      <point x="286" y="-160" type="line"/>
    </contour>
    <contour>
      <point x="479" y="385" type="line"/>
      <point x="495" y="385" type="line"/>
      <point x="495" y="521" type="line"/>
      <point x="479" y="521" type="line"/>
    </contour>
  </outline>
</glyph>
<glyph name="r" format="2">
  <advance width="484"/>
  <unicode hex="0072"/>
  <guideline x="0" y="367" angle="0" identifier="324qiulJ3E"/>
  <outline>
    <contour>
      <point x="51" y="0" type="line"/>
      <point x="349" y="0" type="line"/>
      <point x="349" y="60" type="line"/>
      <point x="185" y="95" type="line"/>
      <point x="205" y="56" type="line"/>
      <point x="205" y="540" type="line"/>
      <point x="51" y="540" type="line"/>
      <point x="51" y="480" type="line"/>
      <point x="154" y="443" type="line"/>
      <point x="125" y="485" type="line"/>
      <point x="125" y="56" type="line"/>
      <point x="153" y="95" type="line"/>
      <point x="51" y="60" type="line"/>
    </contour>
    <contour>
      <point x="391" y="343" type="line"/>
      <point x="460" y="343" type="line"/>
      <point x="472" y="521" type="line"/>
      <point x="450" y="534"/>
      <point x="415" y="555.0"/>
      <point x="351" y="555" type="curve" smooth="yes"/>
      <point x="284.08799999999997" y="555.0"/>
      <point x="241.4170931543952" y="532.2458862159741"/>
      <point x="228" y="460" type="curve"/>
      <point x="256.286" y="480" type="line"/>
      <point x="184" y="480" type="line"/>
      <point x="194" y="401" type="line"/>
      <point x="225.0" y="449.0"/>
      <point x="268.0" y="463.0"/>
      <point x="318" y="463" type="curve" smooth="yes"/>
      <point x="347.44444444444446" y="463.0"/>
      <point x="387.36990175505343" y="457.66009027914004"/>
      <point x="424" y="424" type="curve"/>
      <point x="378" y="497" type="line"/>
    </contour>
  </outline>
</glyph>
<glyph name="s" format="2">
  <advance width="500"/>
  <unicode hex="0073"/>
  <guideline x="0" y="189" angle="0" identifier="X1uGCv1xia"/>
  <outline>
    <contour>
      <point x="39" y="30" type="line"/>
      <point x="39.0" y="30.0"/>
      <point x="108.0" y="-16.0"/>
      <point x="250" y="-16" type="curve" smooth="yes"/>
      <point x="349.0" y="-16.0"/>
      <point x="464.0" y="9.0"/>
      <point x="464" y="150" type="curve" smooth="yes"/>
      <point x="464.0" y="250.0"/>
      <point x="422" y="293"/>
      <point x="276" y="305" type="curve" smooth="yes"/>
      <point x="264" y="306" type="line" smooth="yes"/>
      <point x="173" y="314"/>
      <point x="135" y="339"/>
      <point x="135" y="394" type="curve" smooth="yes"/>
      <point x="135.0" y="461"/>
      <point x="170.0" y="472.0"/>
      <point x="259" y="472" type="curve" smooth="yes"/>
      <point x="316" y="472"/>
      <point x="351" y="463"/>
      <point x="392" y="449" type="curve"/>
      <point x="360" y="491" type="line"/>
      <point x="367" y="371" type="line"/>
      <point x="431" y="369" type="line"/>
      <point x="441" y="520" type="line"/>
      <point x="392" y="542"/>
      <point x="349" y="556"/>
      <point x="278" y="559" type="curve" smooth="yes"/>
      <point x="128" y="565"/>
      <point x="55.0" y="526"/>
      <point x="55" y="399" type="curve" smooth="yes"/>
      <point x="55" y="300"/>
      <point x="118" y="242"/>
      <point x="238" y="232" type="curve" smooth="yes"/>
      <point x="249" y="231" type="line" smooth="yes"/>
      <point x="362" y="221"/>
      <point x="384.0" y="191"/>
      <point x="384" y="147" type="curve" smooth="yes"/>
      <point x="384" y="92"/>
      <point x="346" y="74"/>
      <point x="251" y="74" type="curve" smooth="yes"/>
      <point x="193" y="74"/>
      <point x="150" y="78"/>
      <point x="101" y="105" type="curve"/>
      <point x="131" y="75" type="line"/>
      <point x="124" y="181" type="line"/>
      <point x="59" y="183" type="line"/>
    </contour>
  </outline>
</glyph>
<glyph name="y" format="2">
  <advance width="590"/>
  <unicode hex="0079"/>
  <outline>
    <contour>
      <point x="8" y="-189" type="line"/>
      <point x="53" y="-207"/>
      <point x="96" y="-221"/>
      <point x="151" y="-221" type="curve"/>
      <point x="237" y="-221"/>
      <point x="288" y="-194"/>
      <point x="337" y="-55" type="curve" smooth="yes"/>
      <point x="527" y="480" type="line"/>
      <point x="502" y="454" type="line"/>
      <point x="598" y="480" type="line"/>
      <point x="598" y="540" type="line"/>
      <point x="356" y="540" type="line"/>
      <point x="356" y="480" type="line"/>
      <point x="459" y="459" type="line"/>
      <point x="441" y="483" type="line"/>
      <point x="266" y="-11" type="line" smooth="yes"/>
      <point x="231" y="-110"/>
      <point x="218" y="-137"/>
      <point x="144" y="-137" type="curve" smooth="yes"/>
      <point x="108" y="-137"/>
      <point x="74" y="-134"/>
      <point x="25" y="-124" type="curve"/>
    </contour>
    <contour>
      <point x="36" y="483" type="line"/>
      <point x="214" y="0" type="line"/>
      <point x="301" y="0" type="line"/>
      <point x="129" y="483" type="line"/>
      <point x="124" y="459" type="line"/>
      <point x="228" y="480" type="line"/>
      <point x="228" y="540" type="line"/>
      <point x="-27" y="540" type="line"/>
      <point x="-27" y="480" type="line"/>
      <point x="81" y="454" type="line"/>
    </contour>
    <contour>
      <point x="246" y="20" type="line"/>
      <point x="328" y="20" type="line"/>
      <point x="328" y="99" type="line"/>
      <point x="246" y="99" type="line"/>
    </contour>
  </outline>
</glyph>
<glyph name="Eacute" format="2">
  <advance width="652"/>
  <unicode hex="00C9"/>
  <outline>
    <contour>
      <point x="368" y="998" type="line"/>
      <point x="481" y="998" type="line"/>
      <point x="383" y="833" type="line"/>
      <point x="302" y="833" type="line"/>
    </contour>
    <component base="E"/>
  </outline>
</glyph>
<glyph name="Iacute" format="2">
  <advance width="359"/>
  <unicode hex="00CD"/>
  <outline>
    <contour>
      <point x="197" y="998" type="line"/>
      <point x="310" y="998" type="line"/>
      <point x="212" y="833" type="line"/>
      <point x="131" y="833" type="line"/>
    </contour>
    <component base="I"/>
  </outline>
</glyph>
<glyph name="Oacute" format="2">
  <advance width="758"/>
  <unicode hex="00D3"/>
  <outline>
    <contour>
      <point x="388" y="998" type="line"/>
      <point x="501" y="998" type="line"/>
      <point x="403" y="833" type="line"/>
      <point x="322" y="833" type="line"/>
    </contour>
    <component base="O"/>
  </outline>
</glyph>
<glyph name="Uacute" format="2">
  <advance width="785"/>
  <unicode hex="00DA"/>
  <outline>
    <contour>
      <point x="398" y="998" type="line"/>
      <point x="511" y="998" type="line"/>
      <point x="413" y="833" type="line"/>
      <point x="332" y="833" type="line"/>
    </contour>
    <component base="U"/>
  </outline>
</glyph>
<glyph name="eacute" format="2">
  <advance width="539"/>
  <unicode hex="00E9"/>
  <outline>
    <contour>
      <point x="221" y="677" type="line"/>
      <point x="267" y="641" type="line"/>
      <point x="415" y="787" type="line"/>
      <point x="342" y="848" type="line"/>
    </contour>
    <component base="e"/>
  </outline>
</glyph>
<glyph name="iacute" format="2">
  <advance width="322"/>
  <unicode hex="00ED"/>
  <outline>
    <contour>
      <point x="110" y="677" type="line"/>
      <point x="156" y="641" type="line"/>
      <point x="304" y="787" type="line"/>
      <point x="231" y="848" type="line"/>
    </contour>
    <component base="dotlessi"/>
  </outline>
</glyph>
<glyph name="oacute" format="2">
  <advance width="566"/>
  <unicode hex="00F3"/>
  <outline>
    <contour>
      <point x="219" y="677" type="line"/>
      <point x="265" y="641" type="line"/>
      <point x="413" y="787" type="line"/>
      <point x="340" y="848" type="line"/>
    </contour>
    <component base="o"/>
  </outline>
</glyph>
